<?xml version='1.0' encoding='UTF-8' standalone='no'?>
<!-- Created with Fritzing (http://www.fritzing.org/) -->
<svg xmlns="http://www.w3.org/2000/svg" version="1.2" baseProfile="tiny" width="2.2in" height="1.1in" viewBox="0 0 22000 11000" x="0in" y="0in" >
  <desc >
    <referenceFile >generic_ic_dip_38_1000mil_bread.svg</referenceFile>
  </desc>
  <g gorn="0.0" id="silkscreen">
    <!-- ESP32-DevKitC -->
    <rect x="50" y="50" rx="500" ry="500" width="21750" height="10950" style="fill:none;stroke:#1E2C5C;stroke-width:100;" />
    <text x="12000" y="3550" style="font-size:800px;text-anchor:start;fill:#1E2C5C;stroke:none;font-family:OCRA">ESP32-DevKitC</text>
    <text x="4000"  y="5000" style="font-size:350px;text-anchor:start;fill:#1E2C5C;stroke:none;font-family:OCRA">ESP-WROOM-32</text>
    <!-- ESP-WROOM-32 -->
    <rect x="50" y="2050" width="9000" height="6950" style="fill:none;stroke:#1E2C5C;stroke-width:100;"/>
    <path d="M3050 2500 L250 2500 L250 3500 L3050 3500 M250 3500 L250 4500 L1300 4500 L1300 5500 L250 5500 L250 6500 L1300 6500 L1300 7500 L250 7500 L250 8500 L2300 8500" style="fill:none;stroke:#1E2C5C;stroke-width:250"/>
    <rect x="3050"  y="2050" width="6000" height="6950" style="fill:none;stroke:#1E2C5C;stroke-width:100;"/>
    <!-- Bushbutton Boot -->
    <rect    x="20000"  y="2050" width="1500" height="1000" style="fill:none;stroke:#1E2C5C;stroke-width:100;" />
    <circle cx="20750" cy="2550" r="250" style="fill:none;stroke:#1E2C5C;stroke-width:100;" />
    <text    x="20750"  y="3500" font-size="350" font-family="OCRA" fill="#1E2C5C" text-anchor="middle" id="label" stroke="none">BOOT</text>
    <!-- USB connector -->
    <rect x="20000" y="4050" width="2000" height="2950" style="fill:none;stroke:#1E2C5C;stroke-width:100;"/>
    <rect x="20000" y="4650" width="300"  height="600"  style="fill:none;stroke:#1E2C5C;stroke-width:100;"/>
    <rect x="20000" y="5850" width="300"  height="600"  style="fill:none;stroke:#1E2C5C;stroke-width:100;"/>
    <rect x="20900" y="4350" width="600"  height="300"  style="fill:none;stroke:#1E2C5C;stroke-width:100;"/>
    <rect x="20900" y="6450" width="600"  height="300"  style="fill:none;stroke:#1E2C5C;stroke-width:100;"/>
    <!-- Bushbutton RST -->
    <rect    x="20000"  y="8050" width="1500" height="1000" style="fill:none;stroke:#1E2C5C;stroke-width:100;" />
    <circle cx="20750" cy="8550" r="250" style="fill:none;stroke:#1E2C5C;stroke-width:100;"/>
    <text    x="20750"  y="7850" font-size="350" font-family="OCRA" fill="#1E2C5C" text-anchor="middle" id="label" stroke="none">RST</text>
  </g>
  <g id="copper1">
    <g id="copper0">
      <!-- Holes for 2mm screws -->
      <circle cx="1000"  cy="750"   r="450" fill="none" stroke="rgb(255, 191, 0)" stroke-width="10"/>
      <circle cx="1000"  cy="10250" r="450" fill="none" stroke="rgb(255, 191, 0)" stroke-width="10"/>
      <circle cx="21000" cy="750"   r="450" fill="none" stroke="rgb(255, 191, 0)" stroke-width="10"/>
      <circle cx="21000" cy="10250" r="450" fill="none" stroke="rgb(255, 191, 0)" stroke-width="10"/>
        <!-- Low pin number -->
      <circle cx="2000"  cy="10500" r="275" gorn="0.1.0.1"  fill="none" id="connector0pin"  stroke="rgb(255, 191, 0)" stroke-width="200"/>
      <circle cx="3000"  cy="10500" r="275" gorn="0.1.0.2"  fill="none" id="connector1pin"  stroke="rgb(255, 191, 0)" stroke-width="200"/>
      <circle cx="4000"  cy="10500" r="275" gorn="0.1.0.3"  fill="none" id="connector2pin"  stroke="rgb(255, 191, 0)" stroke-width="200"/>
      <circle cx="5000"  cy="10500" r="275" gorn="0.1.0.4"  fill="none" id="connector3pin"  stroke="rgb(255, 191, 0)" stroke-width="200"/>
      <circle cx="6000"  cy="10500" r="275" gorn="0.1.0.5"  fill="none" id="connector4pin"  stroke="rgb(255, 191, 0)" stroke-width="200"/>
      <circle cx="7000"  cy="10500" r="275" gorn="0.1.0.6"  fill="none" id="connector5pin"  stroke="rgb(255, 191, 0)" stroke-width="200"/>
      <circle cx="8000"  cy="10500" r="275" gorn="0.1.0.7"  fill="none" id="connector6pin"  stroke="rgb(255, 191, 0)" stroke-width="200"/>
      <circle cx="9000"  cy="10500" r="275" gorn="0.1.0.8"  fill="none" id="connector7pin"  stroke="rgb(255, 191, 0)" stroke-width="200"/>
      <circle cx="10000" cy="10500" r="275" gorn="0.1.0.9"  fill="none" id="connector8pin"  stroke="rgb(255, 191, 0)" stroke-width="200"/>
      <circle cx="11000" cy="10500" r="275" gorn="0.1.0.10" fill="none" id="connector9pin"  stroke="rgb(255, 191, 0)" stroke-width="200"/>
      <circle cx="12000" cy="10500" r="275" gorn="0.1.0.11" fill="none" id="connector10pin" stroke="rgb(255, 191, 0)" stroke-width="200"/>
      <circle cx="13000" cy="10500" r="275" gorn="0.1.0.12" fill="none" id="connector11pin" stroke="rgb(255, 191, 0)" stroke-width="200"/>
      <circle cx="14000" cy="10500" r="275" gorn="0.1.0.13" fill="none" id="connector12pin" stroke="rgb(255, 191, 0)" stroke-width="200"/>
      <circle cx="15000" cy="10500" r="275" gorn="0.1.0.14" fill="none" id="connector13pin" stroke="rgb(255, 191, 0)" stroke-width="200"/>
      <circle cx="16000" cy="10500" r="275" gorn="0.1.0.15" fill="none" id="connector14pin" stroke="rgb(255, 191, 0)" stroke-width="200"/>
      <circle cx="17000" cy="10500" r="275" gorn="0.1.0.16" fill="none" id="connector15pin" stroke="rgb(255, 191, 0)" stroke-width="200"/>
      <circle cx="18000" cy="10500" r="275" gorn="0.1.0.17" fill="none" id="connector16pin" stroke="rgb(255, 191, 0)" stroke-width="200"/>
      <circle cx="19000" cy="10500" r="275" gorn="0.1.0.18" fill="none" id="connector17pin" stroke="rgb(255, 191, 0)" stroke-width="200"/>
      <circle cx="20000" cy="10500" r="275" gorn="0.1.0.19" fill="none" id="connector18pin" stroke="rgb(255, 191, 0)" stroke-width="200"/>
      <!-- High pin number -->
      <circle cx="2000"  cy="500"   r="275" gorn="0.2.0.38" fill="none" id="connector37pin" stroke="rgb(255, 191, 0)" stroke-width="200"/>
      <circle cx="3000"  cy="500"   r="275" gorn="0.2.0.37" fill="none" id="connector36pin" stroke="rgb(255, 191, 0)" stroke-width="200"/>
      <circle cx="4000"  cy="500"   r="275" gorn="0.2.0.36" fill="none" id="connector35pin" stroke="rgb(255, 191, 0)" stroke-width="200"/>
      <circle cx="5000"  cy="500"   r="275" gorn="0.2.0.35" fill="none" id="connector34pin" stroke="rgb(255, 191, 0)" stroke-width="200"/>
      <circle cx="6000"  cy="500"   r="275" gorn="0.2.0.34" fill="none" id="connector33pin" stroke="rgb(255, 191, 0)" stroke-width="200"/>
      <circle cx="7000"  cy="500"   r="275" gorn="0.2.0.33" fill="none" id="connector32pin" stroke="rgb(255, 191, 0)" stroke-width="200"/>
      <circle cx="8000"  cy="500"   r="275" gorn="0.2.0.32" fill="none" id="connector31pin" stroke="rgb(255, 191, 0)" stroke-width="200"/>
      <circle cx="9000"  cy="500"   r="275" gorn="0.2.0.31" fill="none" id="connector30pin" stroke="rgb(255, 191, 0)" stroke-width="200"/>
      <circle cx="10000" cy="500"   r="275" gorn="0.2.0.30" fill="none" id="connector29pin" stroke="rgb(255, 191, 0)" stroke-width="200"/>
      <circle cx="11000" cy="500"   r="275" gorn="0.2.0.29" fill="none" id="connector28pin" stroke="rgb(255, 191, 0)" stroke-width="200"/>
      <circle cx="12000" cy="500"   r="275" gorn="0.2.0.28" fill="none" id="connector27pin" stroke="rgb(255, 191, 0)" stroke-width="200"/>
      <circle cx="13000" cy="500"   r="275" gorn="0.2.0.27" fill="none" id="connector26pin" stroke="rgb(255, 191, 0)" stroke-width="200"/>
      <circle cx="14000" cy="500"   r="275" gorn="0.2.0.26" fill="none" id="connector25pin" stroke="rgb(255, 191, 0)" stroke-width="200"/>
      <circle cx="15000" cy="500"   r="275" gorn="0.2.0.25" fill="none" id="connector24pin" stroke="rgb(255, 191, 0)" stroke-width="200"/>
      <circle cx="16000" cy="500"   r="275" gorn="0.2.0.24" fill="none" id="connector23pin" stroke="rgb(255, 191, 0)" stroke-width="200"/>
      <circle cx="17000" cy="500"   r="275" gorn="0.2.0.23" fill="none" id="connector22pin" stroke="rgb(255, 191, 0)" stroke-width="200"/>
      <circle cx="18000" cy="500"   r="275" gorn="0.2.0.22" fill="none" id="connector21pin" stroke="rgb(255, 191, 0)" stroke-width="200"/>
      <circle cx="19000" cy="500"   r="275" gorn="0.2.0.21" fill="none" id="connector20pin" stroke="rgb(255, 191, 0)" stroke-width="200"/>
      <circle cx="20000" cy="500"   r="275" gorn="0.2.0.20" fill="none" id="connector19pin" stroke="rgb(255, 191, 0)" stroke-width="200"/>
    </g>
  </g>
</svg>
