<?xml version='1.0' encoding='UTF-8' standalone='no'?>
<!-- Created with Fritzing (http://www.fritzing.org/) -->
<svg xmlns="http://www.w3.org/2000/svg" version="1.2" baseProfile="tiny" width="2.2in" height="1.1in" viewBox="0 0 22000 11000" x="0in" y="0in" gorn="0">
  <desc >
    <referenceFile >generic_ic_dip_38_1000mil_bread.svg</referenceFile>
  </desc>
  <g gorn="0.1" id="breadboard">
    <!-- ESP32-DevKitC -->
    <rect x="50" y="50" rx="500" ry="500" width="21750" height="10950" style="fill:#1E2C5C;stroke:#1E2C5C;stroke-width:100;" />
    <g gorn="0.1.1" id="pinHigh">
      <g gorn="0.1.1.1" id="pin38">
        <!-- connectorXpin / terminal 38 - 20 -->
        <!-- <polygon points="1717.11,0 1500,217.113 1500,782.747 1717.113,1000 2282.74,1000 2500,782.747 2500,217.113 2282.747,0 1717.113,0" fill="#404040"/> -->
        <rect x="1840.46" y="340.463" fill="#8D8C8C" height="319.211" width="319.211" />
        <rect x="1917.97" y="417.974" fill="#8C8663" height="164.189" width="164.189" />
        <polygon points="1840.46,340.463 1917.97,417.974 2082.02,417.974 2159.67,340.463" fill="#B8AF82"/>
        <polygon points="2082.02,582.025 2082.02,417.974 2159.67,340.463 2159.67,659.674" fill="#80795B"/>
        <polygon points="1917.97,582.025 2082.02,582.025 2159.67,659.674 1840.46,659.674" fill="#5E5B43"/>
        <polygon points="1840.46,340.463 1917.97,417.974 1917.97,582.025 1840.46,659.674" fill="#9A916C"/>
        <rect x="1806.15" y="306.153" fill="none" height="387.692" width="387.692" id="connector37pin" />
        <rect x="1849.77" y="342.964" fill="none" height="314.210" width="300.597" id="connector37terminal" />
        <text x="2000" y="1400" style="font-size:300px;text-anchor:middle;fill:#a6a6a6;stroke:none;font-family:OCRA" >GND</text>
      </g>
      <g gorn="0.1.1.2" id="pin37">
        <!-- <polygon points="2717.11,0 2500,217.113 2500,782.747 2717.113,1000 3282.74,1000 3500,782.747 3500,217.113 3282.747,0 2717.113,0" fill="#404040"/> -->
        <rect x="2840.46" y="340.463" fill="#8D8C8C" height="319.211" width="319.211" />
        <rect x="2917.97" y="417.974" fill="#8C8663" height="164.189" width="164.189" />
        <polygon points="2840.46,340.463 2917.97,417.974 3082.02,417.974 3159.67,340.463" fill="#B8AF82"/>
        <polygon points="3082.02,582.025 3082.02,417.974 3159.67,340.463 3159.67,659.674" fill="#80795B"/>
        <polygon points="2917.97,582.025 3082.02,582.025 3159.67,659.674 2840.46,659.674" fill="#5E5B43"/>
        <polygon points="2840.46,340.463 2917.97,417.974 2917.97,582.025 2840.46,659.674" fill="#9A916C"/>
        <rect x="2806.15" y="306.153" fill="none" height="387.692" width="387.692" id="connector36pin" />
        <rect x="2849.77" y="342.964" fill="none" height="314.210" width="300.597" id="connector36terminal" />
        <text x="3000" y="1200" style="font-size:300px;text-anchor:middle;fill:#a6a6a6;stroke:none;font-family:OCRA" >IO23</text>
      </g>
      <g gorn="0.1.1.3" id="pin36">
        <!-- <polygon points="3717.11,0 3500,217.113 3500,782.747 3717.113,1000 4282.74,1000 4500,782.747 4500,217.113 4282.747,0 3717.113,0" fill="#404040"/> -->
        <rect x="3840.46" y="340.463" fill="#8D8C8C" height="319.211" width="319.211"/>
        <rect x="3917.97" y="417.974" fill="#8C8663" height="164.189" width="164.189"/>
        <polygon points="3840.46,340.463 3917.97,417.974 4082.02,417.974 4159.67,340.463" fill="#B8AF82"/>
        <polygon points="4082.02,582.025 4082.02,417.974 4159.67,340.463 4159.67,659.674" fill="#80795B"/>
        <polygon points="3917.97,582.025 4082.02,582.025 4159.67,659.674 3840.46,659.674" fill="#5E5B43"/>
        <polygon points="3840.46,340.463 3917.97,417.974 3917.97,582.025 3840.46,659.674" fill="#9A916C"/>
        <rect x="3806.15" y="306.153" fill="none" height="387.692" width="387.692" id="connector35pin" />
        <rect x="3849.77" y="342.964" fill="none" height="314.210" width="300.597" id="connector35terminal" />
        <text x="4000" y="1400" style="font-size:300px;text-anchor:middle;fill:#a6a6a6;stroke:none;font-family:OCRA">IO22</text>
      </g>
      <g gorn="0.1.1.4" id="pin35">
        <!-- <polygon points="4717.11,0 4500,217.113 4500,782.747 4717.113,1000 5282.74,1000 5500,782.747 5500,217.113 5282.747,0 4717.113,0" fill="#404040"/> -->
        <rect x="4840.46" y="340.463" fill="#8D8C8C" height="319.211" width="319.211"/>
        <rect x="4917.97" y="417.974" fill="#8C8663" height="164.189" width="164.189"/>
        <polygon points="4840.46,340.463 4917.97,417.974 5082.02,417.974 5159.67,340.463" fill="#B8AF82"/>
        <polygon points="5082.02,582.025 5082.02,417.974 5159.67,340.463 5159.67,659.674" fill="#80795B"/>
        <polygon points="4917.97,582.025 5082.02,582.025 5159.67,659.674 4840.46,659.674" fill="#5E5B43"/>
        <polygon points="4840.46,340.463 4917.97,417.974 4917.97,582.025 4840.46,659.674" fill="#9A916C"/>
        <rect x="4806.15" y="306.153" fill="none" height="387.692" width="387.692" id="connector34pin" />
        <rect x="4849.77" y="342.964" fill="none" height="314.210" width="300.597" id="connector34terminal" />
        <text x="5000" y="1200" style="font-size:300px;text-anchor:middle;fill:#a6a6a6;stroke:none;font-family:OCRA">TXD0</text>
      </g>
      <g gorn="0.1.1.5" id="pin34">
        <!-- <polygon points="5717.11,0 5500,217.113 5500,782.747 5717.113,1000 6282.74,1000 6500,782.747 6500,217.113 6282.747,0 5717.113,0" fill="#404040"/> -->
        <rect x="5840.46" y="340.463" fill="#8D8C8C" height="319.211" width="319.211"/>
        <rect x="5917.97" y="417.974" fill="#8C8663" height="164.189" width="164.189"/>
        <polygon points="5840.46,340.463 5917.97,417.974 6082.02,417.974 6159.67,340.463" fill="#B8AF82"/>
        <polygon points="6082.02,582.025 6082.02,417.974 6159.67,340.463 6159.67,659.674" fill="#80795B"/>
        <polygon points="5917.97,582.025 6082.02,582.025 6159.67,659.674 5840.46,659.674" fill="#5E5B43"/>
        <polygon points="5840.46,340.463 5917.97,417.974 5917.97,582.025 5840.46,659.674" fill="#9A916C"/>
        <rect x="5806.15" y="306.153" fill="none" height="387.692" width="387.692" id="connector33pin" />
        <rect x="5849.77" y="342.964" fill="none" height="314.210" width="300.597" id="connector33terminal" />
        <text x="6000" y="1400" style="font-size:300px;text-anchor:middle;fill:#a6a6a6;stroke:none;font-family:OCRA">RXD0</text>
      </g>
      <g gorn="0.1.1.6" id="pin33">
        <!-- <polygon points="6717.11,0 6500,217.113 6500,782.747 6717.113,1000 7282.74,1000 7500,782.747 7500,217.113 7282.747,0 6717.113,0" fill="#404040"/> -->
        <rect x="6840.46" y="340.463" fill="#8D8C8C" height="319.211" width="319.211"/>
        <rect x="6917.97" y="417.974" fill="#8C8663" height="164.189" width="164.189"/>
        <polygon points="6840.46,340.463 6917.97,417.974 7082.02,417.974 7159.67,340.463" fill="#B8AF82"/>
        <polygon points="7082.02,582.025 7082.02,417.974 7159.67,340.463 7159.67,659.674" fill="#80795B"/>
        <polygon points="6917.97,582.025 7082.02,582.025 7159.67,659.674 6840.46,659.674" fill="#5E5B43"/>
        <polygon points="6840.46,340.463 6917.97,417.974 6917.97,582.025 6840.46,659.674" fill="#9A916C"/>
        <rect x="6806.15" y="306.153" fill="none" height="387.692" width="387.692" id="connector32pin" />
        <rect x="6849.77" y="342.964" fill="none" height="314.210" width="300.597" id="connector32terminal" />
        <text x="7000" y="1200" style="font-size:300px;text-anchor:middle;fill:#a6a6a6;stroke:none;font-family:OCRA">IO21</text>
      </g>
      <g gorn="0.1.1.7" id="pin32">
        <!-- <polygon points="7717.11,0 7500,217.113 7500,782.747 7717.113,1000 8282.74,1000 8500,782.747 8500,217.113 8282.747,0 7717.113,0" fill="#404040"/> -->
        <rect x="7840.46" y="340.463" fill="#8D8C8C" height="319.211" width="319.211"/>
        <rect x="7917.97" y="417.974" fill="#8C8663" height="164.189" width="164.189"/>
        <polygon points="7840.46,340.463 7917.97,417.974 8082.02,417.974 8159.67,340.463" fill="#B8AF82"/>
        <polygon points="8082.02,582.025 8082.02,417.974 8159.67,340.463 8159.67,659.674" fill="#80795B"/>
        <polygon points="7917.97,582.025 8082.02,582.025 8159.67,659.674 7840.46,659.674" fill="#5E5B43"/>
        <polygon points="7840.46,340.463 7917.97,417.974 7917.97,582.025 7840.46,659.674" fill="#9A916C"/>
        <rect x="7806.15" y="306.153" fill="none" height="387.692" width="387.692" id="connector31pin" />
        <rect x="7849.77" y="342.964" fill="none" height="314.210" width="300.597" id="connector31terminal" />
        <text x="8000" y="1400" style="font-size:300px;text-anchor:middle;fill:#a6a6a6;stroke:none;font-family:OCRA">GND</text>
      </g>
      <g gorn="0.1.1.8" id="pin31">
        <!-- <polygon points="8717.11,0 8500,217.113 8500,782.747 8717.113,1000 9282.74,1000 9500,782.747 9500,217.113 9282.747,0 8717.113,0" fill="#404040"/> -->
        <rect x="8840.46" y="340.463" fill="#8D8C8C" height="319.211" width="319.211"/>
        <rect x="8917.97" y="417.974" fill="#8C8663" height="164.189" width="164.189"/>
        <polygon points="8840.46,340.463 8917.97,417.974 9082.02,417.974 9159.67,340.463" fill="#B8AF82"/>
        <polygon points="9082.02,582.025 9082.02,417.974 9159.67,340.463 9159.67,659.674" fill="#80795B"/>
        <polygon points="8917.97,582.025 9082.02,582.025 9159.67,659.674 8840.46,659.674" fill="#5E5B43"/>
        <polygon points="8840.46,340.463 8917.97,417.974 8917.97,582.025 8840.46,659.674" fill="#9A916C"/>
        <rect x="8806.15" y="306.153" fill="none" height="387.692" width="387.692" id="connector30pin" />
        <rect x="8849.77" y="342.964" fill="none" height="314.210" width="300.597" id="connector30terminal" />
        <text x="9000" y="1200" style="font-size:300px;text-anchor:middle;fill:#a6a6a6;stroke:none;font-family:OCRA">IO19</text>
      </g>
      <g gorn="0.1.1.9" id="pin30">
        <!-- <polygon points="9717.11,0 9500,217.113 9500,782.747 9717.113,1000 10282.74,1000 10500,782.747 10500,217.113 10282.747,0 9717.113,0" fill="#404040"/> -->
        <rect x="9840.46" y="340.463" fill="#8D8C8C" height="319.211" width="319.211"/>
        <rect x="9917.97" y="417.974" fill="#8C8663" height="164.189" width="164.189"/>
        <polygon points="9840.46,340.463 9917.97,417.974 10082.0,417.974 10159.6,340.463" fill="#B8AF82"/>
        <polygon points="10082.0,582.025 10082.0,417.974 10159.6,340.463 10159.6,659.674" fill="#80795B"/>
        <polygon points="9917.97,582.025 10082.0,582.025 10159.6,659.674 9840.46,659.674" fill="#5E5B43"/>
        <polygon points="9840.46,340.463 9917.97,417.974 9917.97,582.025 9840.46,659.674" fill="#9A916C"/>
        <rect x="9806.15" y="306.153" fill="none" height="387.692" width="387.692" id="connector29pin" />
        <rect x="9849.77" y="342.964" fill="none" height="314.210" width="300.597" id="connector29terminal" />
        <text x="10000" y="1400" style="font-size:300px;text-anchor:middle;fill:#a6a6a6;stroke:none;font-family:OCRA">IO18</text>
      </g>
      <g gorn="0.1.1.10" id="pin29">
        <!-- <polygon points="10717.1,0 10500,217.113 10500,782.747 10717.1,1000 11282.7,1000 11500,782.747 11500,217.113 11282.747,0 10717.1,0" fill="#404040"/> -->
        <rect x="10840.4" y="340.463" fill="#8D8C8C" height="319.211" width="319.211"/>
        <rect x="10917.9" y="417.974" fill="#8C8663" height="164.189" width="164.189"/>
        <polygon points="10840.4,340.463 10917.9,417.974 11082.0,417.974 11159.6,340.463" fill="#B8AF82"/>
        <polygon points="11082.0,582.025 11082.0,417.974 11159.6,340.463 11159.6,659.674" fill="#80795B"/>
        <polygon points="10917.9,582.025 11082.0,582.025 11159.6,659.674 10840.4,659.674" fill="#5E5B43"/>
        <polygon points="10840.4,340.463 10917.9,417.974 10917.9,582.025 10840.4,659.674" fill="#9A916C"/>
        <rect x="10806.1" y="306.153" fill="none" height="387.692" width="387.692" id="connector28pin" />
        <rect x="10849.7" y="342.964" fill="none" height="314.210" width="300.597" id="connector28terminal" />
        <text x="11000" y="1200" style="font-size:300px;text-anchor:middle;fill:#a6a6a6;stroke:none;font-family:OCRA">IO5</text>
      </g>
      <g gorn="0.1.1.11" id="pin28">
        <!-- <polygon points="11717.1,0 11500,217.113 11500,782.747 11717.1,1000 12282.7,1000 12500,782.747 12500,217.113 12282.747,0 11717.1,0" fill="#404040"/> -->
        <rect x="11840.4" y="340.463" fill="#8D8C8C" height="319.211" width="319.211"/>
        <rect x="11917.9" y="417.974" fill="#8C8663" height="164.189" width="164.189"/>
        <polygon points="11840.4,340.463 11917.9,417.974 12082.0,417.974 12159.6,340.463" fill="#B8AF82"/>
        <polygon points="12082.0,582.025 12082.0,417.974 12159.6,340.463 12159.6,659.674" fill="#80795B"/>
        <polygon points="11917.9,582.025 12082.0,582.025 12159.6,659.674 11840.4,659.674" fill="#5E5B43"/>
        <polygon points="11840.4,340.463 11917.9,417.974 11917.9,582.025 11840.4,659.674" fill="#9A916C"/>
        <rect x="11806.1" y="306.153" fill="none" height="387.692" width="387.692" id="connector27pin" />
        <rect x="11849.7" y="342.964" fill="none" height="314.210" width="300.597" id="connector27terminal" />
        <text x="12000" y="1400" style="font-size:300px;text-anchor:middle;fill:#a6a6a6;stroke:none;font-family:OCRA">IO17</text>
      </g>
      <g gorn="0.1.1.12" id="pin27">
        <!-- <polygon points="12717.1,0 12500,217.113 12500,782.747 12717.1,1000 13282.7,1000 13500,782.747 13500,217.113 13282.747,0 12717.1,0" fill="#404040"/> -->
        <rect x="12840.4" y="340.463" fill="#8D8C8C" height="319.211" width="319.211"/>
        <rect x="12917.9" y="417.974" fill="#8C8663" height="164.189" width="164.189"/>
        <polygon points="12840.4,340.463 12917.9,417.974 13082.0,417.974 13159.6,340.463" fill="#B8AF82"/>
        <polygon points="13082.0,582.025 13082.0,417.974 13159.6,340.463 13159.6,659.674" fill="#80795B"/>
        <polygon points="12917.9,582.025 13082.0,582.025 13159.6,659.674 12840.4,659.674" fill="#5E5B43"/>
        <polygon points="12840.4,340.463 12917.9,417.974 12917.9,582.025 12840.4,659.674" fill="#9A916C"/>
        <rect x="12806.1" y="306.153" fill="none" height="387.692" width="387.692" id="connector26pin" />
        <rect x="12849.7" y="342.964" fill="none" height="314.210" width="300.597" id="connector26terminal" />
        <text x="13000" y="1200" style="font-size:300px;text-anchor:middle;fill:#a6a6a6;stroke:none;font-family:OCRA">IO16</text>
      </g>
      <g gorn="0.1.1.13" id="pin26">
        <!-- <polygon points="13717.1,0 13500,217.113 13500,782.747 13717.1,1000 14282.7,1000 14500,782.747 14500,217.113 14282.747,0 13717.1,0" fill="#404040"/> -->
        <rect x="13840.4" y="340.463" fill="#8D8C8C" height="319.211" width="319.211"/>
        <rect x="13917.9" y="417.974" fill="#8C8663" height="164.189" width="164.189"/>
        <polygon points="13840.4,340.463 13917.9,417.974 14082.0,417.974 14159.6,340.463" fill="#B8AF82"/>
        <polygon points="14082.0,582.025 14082.0,417.974 14159.6,340.463 14159.6,659.674" fill="#80795B"/>
        <polygon points="13917.9,582.025 14082.0,582.025 14159.6,659.674 13840.4,659.674" fill="#5E5B43"/>
        <polygon points="13840.4,340.463 13917.9,417.974 13917.9,582.025 13840.4,659.674" fill="#9A916C"/>
        <rect x="13806.1" y="306.153" fill="none" height="387.692" width="387.692" id="connector25pin" />
        <rect x="13849.7" y="342.964" fill="none" height="314.210" width="300.597" id="connector25terminal" />
        <text x="14000" y="1400" style="font-size:300px;text-anchor:middle;fill:#a6a6a6;stroke:none;font-family:OCRA">IO4</text>
      </g>
      <g gorn="0.1.1.14" id="pin25">
        <!-- <polygon points="14717.1,0 14500,217.113 14500,782.747 14717.1,1000 15282.7,1000 15500,782.747 15500,217.113 15282.747,0 14717.1,0" fill="#404040"/> -->
        <rect x="14840.4" y="340.463" fill="#8D8C8C" height="319.211" width="319.211"/>
        <rect x="14917.9" y="417.974" fill="#8C8663" height="164.189" width="164.189"/>
        <polygon points="14840.4,340.463 14917.9,417.974 15082.0,417.974 15159.6,340.463" fill="#B8AF82"/>
        <polygon points="15082.0,582.025 15082.0,417.974 15159.6,340.463 15159.6,659.674" fill="#80795B"/>
        <polygon points="14917.9,582.025 15082.0,582.025 15159.6,659.674 14840.4,659.674" fill="#5E5B43"/>
        <polygon points="14840.4,340.463 14917.9,417.974 14917.9,582.025 14840.4,659.674" fill="#9A916C"/>
        <rect x="14806.1" y="306.153" fill="none" height="387.692" width="387.692" id="connector24pin" />
        <rect x="14849.7" y="342.964" fill="none" height="314.210" width="300.597" id="connector24terminal" />
        <text x="15000" y="1200" style="font-size:300px;text-anchor:middle;fill:#a6a6a6;stroke:none;font-family:OCRA">IO0</text>
      </g>
      <g gorn="0.1.1.15" id="pin24">
        <!-- <polygon points="15717.1,0 15500,217.113 15500,782.747 15717.1,1000 16282.7,1000 16500,782.747 16500,217.113 16282.747,0 15717.1,0" fill="#404040"/> -->
        <rect x="15840.4" y="340.463" fill="#8D8C8C" height="319.211" width="319.211"/>
        <rect x="15917.9" y="417.974" fill="#8C8663" height="164.189" width="164.189"/>
        <polygon points="15840.4,340.463 15917.9,417.974 16082.0,417.974 16159.6,340.463" fill="#B8AF82"/>
        <polygon points="16082.0,582.025 16082.0,417.974 16159.6,340.463 16159.6,659.674" fill="#80795B"/>
        <polygon points="15917.9,582.025 16082.0,582.025 16159.6,659.674 15840.4,659.674" fill="#5E5B43"/>
        <polygon points="15840.4,340.463 15917.9,417.974 15917.9,582.025 15840.4,659.674" fill="#9A916C"/>
        <rect x="15806.1" y="306.153" fill="none" height="387.692" width="387.692" id="connector23pin" />
        <rect x="15849.7" y="342.964" fill="none" height="314.210" width="300.597" id="connector23terminal" />
        <text x="16000" y="1400" style="font-size:300px;text-anchor:middle;fill:#a6a6a6;stroke:none;font-family:OCRA">IO2</text>
      </g>
      <g gorn="0.1.1.16" id="pin23">
        <!-- <polygon points="16717.1,0 16500,217.113 16500,782.747 16717.1,1000 17282.7,1000 17500,782.747 17500,217.113 17282.747,0 16717.1,0" fill="#404040"/> -->
        <rect x="16840.4" y="340.463" fill="#8D8C8C" height="319.211" width="319.211"/>
        <rect x="16917.9" y="417.974" fill="#8C8663" height="164.189" width="164.189"/>
        <polygon points="16840.4,340.463 16917.9,417.974 17082.0,417.974 17159.6,340.463" fill="#B8AF82"/>
        <polygon points="17082.0,582.025 17082.0,417.974 17159.6,340.463 17159.6,659.674" fill="#80795B"/>
        <polygon points="16917.9,582.025 17082.0,582.025 17159.6,659.674 16840.4,659.674" fill="#5E5B43"/>
        <polygon points="16840.4,340.463 16917.9,417.974 16917.9,582.025 16840.4,659.674" fill="#9A916C"/>
        <rect x="16806.1" y="306.153" fill="none" height="387.692" width="387.692" id="connector22pin" />
        <rect x="16849.7" y="342.964" fill="none" height="314.210" width="300.597" id="connector22terminal" />
        <text x="17000" y="1200" style="font-size:300px;text-anchor:middle;fill:#a6a6a6;stroke:none;font-family:OCRA">IO15</text>
      </g>
      <g gorn="0.1.1.17" id="pin22">
        <!-- <polygon points="17717.1,0 17500,217.113 17500,782.747 17717.1,1000 18282.7,1000 18500,782.747 18500,217.113 18282.747,0 17717.1,0" fill="#404040"/> -->
        <rect x="17840.4" y="340.463" fill="#8D8C8C" height="319.211" width="319.211"/>
        <rect x="17917.9" y="417.974" fill="#8C8663" height="164.189" width="164.189"/>
        <polygon points="17840.4,340.463 17917.9,417.974 18082.0,417.974 18159.6,340.463" fill="#B8AF82"/>
        <polygon points="18082.0,582.025 18082.0,417.974 18159.6,340.463 18159.6,659.674" fill="#80795B"/>
        <polygon points="17917.9,582.025 18082.0,582.025 18159.6,659.674 17840.4,659.674" fill="#5E5B43"/>
        <polygon points="17840.4,340.463 17917.9,417.974 17917.9,582.025 17840.4,659.674" fill="#9A916C"/>
        <rect x="17806.1" y="306.153" fill="none" height="387.692" width="387.692" id="connector21pin" />
        <rect x="17849.7" y="342.964" fill="none" height="314.210" width="300.597" id="connector21terminal" />
        <text x="18000" y="1400" style="font-size:300px;text-anchor:middle;fill:#a6a6a6;stroke:none;font-family:OCRA">SD1</text>
      </g>
      <g gorn="0.1.1.18" id="pin21">
        <!-- <polygon points="18717.1,0 18500,217.113 18500,782.747 18717.1,1000 19282.7,1000 19500,782.747 19500,217.113 19282.747,0 18717.1,0" fill="#404040"/> -->
        <rect x="18840.4" y="340.463" fill="#8D8C8C" height="319.211" width="319.211"/>
        <rect x="18917.9" y="417.974" fill="#8C8663" height="164.189" width="164.189"/>
        <polygon points="18840.4,340.463 18917.9,417.974 19082.0,417.974 19159.6,340.463" fill="#B8AF82"/>
        <polygon points="19082.0,582.025 19082.0,417.974 19159.6,340.463 19159.6,659.674" fill="#80795B"/>
        <polygon points="18917.9,582.025 19082.0,582.025 19159.6,659.674 18840.4,659.674" fill="#5E5B43"/>
        <polygon points="18840.4,340.463 18917.9,417.974 18917.9,582.025 18840.4,659.674" fill="#9A916C"/>
        <rect x="18806.1" y="306.153" fill="none" height="387.692" width="387.692" id="connector20pin" />
        <rect x="18849.7" y="342.964" fill="none" height="314.210" width="300.597" id="connector20terminal" />
        <text x="19000" y="1200" style="font-size:300px;text-anchor:middle;fill:#a6a6a6;stroke:none;font-family:OCRA">SD0</text>
      </g>
      <g gorn="0.1.1.19" id="pin20">
        <!-- <polygon points="19717.1,0 19500,217.113 19500,782.747 19717.1,1000 20282.7,1000 20500,782.747 20500,217.113 20282.7,0 19717.1,0" fill="#404040"/> -->
        <rect x="19840.5" y="340.463" fill="#8D8C8C" height="319.211" width="319.211"/>
        <rect x="19918.0" y="417.974" fill="#8C8663" height="164.189" width="164.189"/>
        <polygon points="19840.4,340.463 19917.9,417.974 20082.0,417.974 20159.6,340.463" fill="#B8AF82"/>
        <polygon points="20082.0,582.025 20082.0,417.974 20159.6,340.463 20159.6,659.674" fill="#80795B"/>
        <polygon points="19917.9,582.025 20082.0,582.025 20159.6,659.674 19840.4,659.674" fill="#5E5B43"/>
        <polygon points="19840.4,340.463 19917.9,417.974 19917.9,582.025 19840.4,659.674" fill="#9A916C"/>
        <rect x="19806.2" y="306.153" fill="none" height="387.692" width="387.692" id="connector19pin" />
        <rect x="19849.8" y="342.964" fill="none" height="314.210" width="300.597" id="connector19terminal" />
        <text x="20000" y="1400" style="font-size:300px;text-anchor:middle;fill:#a6a6a6;stroke:none;font-family:OCRA">CLK</text>
      </g>
    </g>

    <g gorn="0.1.2" id="pinLow">
      <!-- connectorXpin / terminal 1 - 19 -->
      <g gorn="0.1.2.1" id="pin1">
        <!-- <polygon points="1717.11,10000 1500,10217.1 1500,10782.7 1717.11,11000 2282.74,11000 2500,10782.7 2500,10217.1 2282.747,10000 1717.11,10000" --> fill="#404040"/>
        <rect x="1840.46" y="10340.4" fill="#8D8C8C" height="319.211" width="319.211"/>
        <rect x="1917.97" y="10417.9" fill="#8C8663" height="164.189" width="164.189"/>
        <polygon points="1840.46,10340.4 1917.97,10417.9 2082.02,10417.9 2159.67,10340.4" fill="#B8AF82"/>
        <polygon points="2082.02,10582.0 2082.02,10417.9 2159.67,10340.4 2159.67,10659.6" fill="#80795B"/>
        <polygon points="1917.97,10582.0 2082.02,10582.0 2159.67,10659.6 1840.46,10659.6" fill="#5E5B43"/>
        <polygon points="1840.46,10340.4 1917.97,10417.9 1917.97,10582.0 1840.46,10659.6" fill="#9A916C"/>
        <rect x="1806.15" y="10306.1" fill="none" height="387.692" width="387.692" id="connector0pin" />
        <rect x="1849.77" y="10342.9" fill="none" height="314.210" width="300.597" id="connector0terminal" />
        <text x="2000" y="9750" style="font-size:300px;text-anchor:middle;fill:#a6a6a6;stroke:none;font-family:OCRA">3V3</text>
      </g>
      <g gorn="0.1.2.2" id="pin2">
        <!-- <polygon points="2717.11,10000 2500,10217.1 2500,10782.7 2717.113,11000 3282.74,11000 3500,10782.7 3500,10217.1 3282.747,10000 2717.113,10000" --> fill="#404040"/>
        <rect x="2840.46" y="10340.4" fill="#8D8C8C" height="319.211" width="319.211"/>
        <rect x="2917.97" y="10417.9" fill="#8C8663" height="164.189" width="164.189"/>
        <polygon points="2840.46,10340.4 2917.97,10417.9 3082.02,10417.9 3159.67,10340.4" fill="#B8AF82"/>
        <polygon points="3082.02,10582.0 3082.02,10417.9 3159.67,10340.4 3159.67,10659.6" fill="#80795B"/>
        <polygon points="2917.97,10582.0 3082.02,10582.0 3159.67,10659.6 2840.46,10659.6" fill="#5E5B43"/>
        <polygon points="2840.46,10340.4 2917.97,10417.9 2917.97,10582.0 2840.46,10659.6" fill="#9A916C"/>
        <rect x="2806.15" y="10306.1" fill="none" height="387.692" width="387.692" id="connector1pin" />
        <rect x="2849.77" y="10342.9" fill="none" height="314.210" width="300.597" id="connector1terminal" />
        <text x="3000" y="9950" style="font-size:300px;text-anchor:middle;fill:#a6a6a6;stroke:none;font-family:OCRA">EN</text>
      </g>
      <g gorn="0.1.2.3" id="pin3">
        <!-- <polygon points="3717.11,10000 3500,10217.1 3500,10782.7 3717.113,11000 4282.74,11000 4500,10782.7 4500,10217.1 4282.747,10000 3717.113,10000" fill="#404040"/>  -->
        <rect x="3840.46" y="10340.4" fill="#8D8C8C" height="319.211" width="319.211"/>
        <rect x="3917.97" y="10417.9" fill="#8C8663" height="164.189" width="164.189"/>
        <polygon points="3840.46,10340.4 3917.97,10417.9 4082.02,10417.9 4159.67,10340.4" fill="#B8AF82"/>
        <polygon points="4082.02,10582.0 4082.02,10417.9 4159.67,10340.4 4159.67,10659.6" fill="#80795B"/>
        <polygon points="3917.97,10582.0 4082.02,10582.0 4159.67,10659.6 3840.46,10659.6" fill="#5E5B43"/>
        <polygon points="3840.46,10340.4 3917.97,10417.9 3917.97,10582.0 3840.46,10659.6" fill="#9A916C"/>
        <rect x="3806.15" y="10306.1" fill="none" height="387.692" width="387.692" id="connector2pin" />
        <rect x="3849.77" y="10342.9" fill="none" height="314.210" width="300.597" id="connector2terminal" />
        <text x="4000" y="9750" style="font-size:300px;text-anchor:middle;fill:#a6a6a6;stroke:none;font-family:OCRA">SVP</text>
      </g>
      <g gorn="0.1.2.4" id="pin4">
        <!-- <polygon points="4717.11,10000 4500,10217.1 4500,10782.7 4717.113,11000 5282.74,11000 5500,10782.7 5500,10217.1 5282.747,10000 4717.113,10000" fill="#404040"/>  -->
        <rect x="4840.46" y="10340.4" fill="#8D8C8C" height="319.211" width="319.211"/>
        <rect x="4917.97" y="10417.9" fill="#8C8663" height="164.189" width="164.189"/>
        <polygon points="4840.46,10340.4 4917.97,10417.9 5082.02,10417.9 5159.67,10340.4" fill="#B8AF82"/>
        <polygon points="5082.02,10582.0 5082.02,10417.9 5159.67,10340.4 5159.67,10659.6" fill="#80795B"/>
        <polygon points="4917.97,10582.0 5082.02,10582.0 5159.67,10659.6 4840.46,10659.6" fill="#5E5B43"/>
        <polygon points="4840.46,10340.4 4917.97,10417.9 4917.97,10582.0 4840.46,10659.6" fill="#9A916C"/>
        <rect x="4806.15" y="10306.1" fill="none" height="387.692" width="387.692" id="connector3pin" />
        <rect x="4849.77" y="10342.9" fill="none" height="314.210" width="300.597" id="connector3terminal" />
        <text x="5000" y="9950" style="font-size:300px;text-anchor:middle;fill:#a6a6a6;stroke:none;font-family:OCRA">SVN</text>
      </g>
      <g gorn="0.1.2.5" id="pin5">
        <!-- <polygon points="5717.11,10000 5500,10217.1 5500,10782.7 5717.113,11000 6282.74,11000 6500,10782.7 6500,10217.1 6282.747,10000 5717.113,10000" fill="#404040"/>  -->
        <rect x="5840.46" y="10340.4" fill="#8D8C8C" height="319.211" width="319.211"/>
        <rect x="5917.97" y="10417.9" fill="#8C8663" height="164.189" width="164.189"/>
        <polygon points="5840.46,10340.4 5917.97,10417.9 6082.02,10417.9 6159.67,10340.4" fill="#B8AF82"/>
        <polygon points="6082.02,10582.0 6082.02,10417.9 6159.67,10340.4 6159.67,10659.6" fill="#80795B"/>
        <polygon points="5917.97,10582.0 6082.02,10582.0 6159.67,10659.6 5840.46,10659.6" fill="#5E5B43"/>
        <polygon points="5840.46,10340.4 5917.97,10417.9 5917.97,10582.0 5840.46,10659.6" fill="#9A916C"/>
        <rect x="5806.15" y="10306.1" fill="none" height="387.692" width="387.692" id="connector4pin" />
        <rect x="5849.77" y="10342.9" fill="none" height="314.210" width="300.597" id="connector4terminal" />
        <text x="6000" y="9750" style="font-size:300px;text-anchor:middle;fill:#a6a6a6;stroke:none;font-family:OCRA">IO34</text>
      </g>
      <g gorn="0.1.2.6" id="pin6">
        <!-- <polygon points="6717.11,10000 6500,10217.1 6500,10782.7 6717.113,11000 7282.74,11000 7500,10782.7 7500,10217.1 7282.747,10000 6717.113,10000" fill="#404040"/>  -->
        <rect x="6840.46" y="10340.4" fill="#8D8C8C" height="319.211" width="319.211"/>
        <rect x="6917.97" y="10417.9" fill="#8C8663" height="164.189" width="164.189"/>
        <polygon points="6840.46,10340.4 6917.97,10417.9 7082.02,10417.9 7159.67,10340.4" fill="#B8AF82"/>
        <polygon points="7082.02,10582.0 7082.02,10417.9 7159.67,10340.4 7159.67,10659.6" fill="#80795B"/>
        <polygon points="6917.97,10582.0 7082.02,10582.0 7159.67,10659.6 6840.46,10659.6" fill="#5E5B43"/>
        <polygon points="6840.46,10340.4 6917.97,10417.9 6917.97,10582.0 6840.46,10659.6" fill="#9A916C"/>
        <rect x="6806.15" y="10306.1" fill="none" height="387.692" width="387.692" id="connector5pin" />
        <rect x="6849.77" y="10342.9" fill="none" height="314.210" width="300.597" id="connector5terminal" />
        <text x="7000" y="9950" style="font-size:300px;text-anchor:middle;fill:#a6a6a6;stroke:none;font-family:OCRA">IO35</text>
      </g>
      <g gorn="0.1.2.7" id="pin7">
        <!-- <polygon points="7717.11,10000 7500,10217.1 7500,10782.7 7717.113,11000 8282.74,11000 8500,10782.7 8500,10217.1 8282.747,10000 7717.113,10000" fill="#404040"/>  -->
        <rect x="7840.46" y="10340.4" fill="#8D8C8C" height="319.211" width="319.211"/>
        <rect x="7917.97" y="10417.9" fill="#8C8663" height="164.189" width="164.189"/>
        <polygon points="7840.46,10340.4 7917.97,10417.9 8082.02,10417.9 8159.67,10340.4" fill="#B8AF82"/>
        <polygon points="8082.02,10582.0 8082.02,10417.9 8159.67,10340.4 8159.67,10659.6" fill="#80795B"/>
        <polygon points="7917.97,10582.0 8082.02,10582.0 8159.67,10659.6 7840.46,10659.6" fill="#5E5B43"/>
        <polygon points="7840.46,10340.4 7917.97,10417.9 7917.97,10582.0 7840.46,10659.6" fill="#9A916C"/>
        <rect x="7806.15" y="10306.1" fill="none" height="387.692" width="387.692" id="connector6pin" />
        <rect x="7849.77" y="10342.9" fill="none" height="314.210" width="300.597" id="connector6terminal" />
        <text x="8000" y="9750" style="font-size:300px;text-anchor:middle;fill:#a6a6a6;stroke:none;font-family:OCRA">IO32</text>
      </g>
      <g gorn="0.1.2.8" id="pin8">
        <!-- <polygon points="8717.11,10000 8500,10217.1 8500,10782.7 8717.113,11000 9282.74,11000 9500,10782.7 9500,10217.1 9282.747,10000 8717.113,10000" fill="#404040"/>  -->
        <rect x="8840.46" y="10340.4" fill="#8D8C8C" height="319.211" width="319.211"/>
        <rect x="8917.97" y="10417.9" fill="#8C8663" height="164.189" width="164.189"/>
        <polygon points="8840.46,10340.4 8917.97,10417.9 9082.02,10417.9 9159.67,10340.4" fill="#B8AF82"/>
        <polygon points="9082.02,10582.0 9082.02,10417.9 9159.67,10340.4 9159.67,10659.6" fill="#80795B"/>
        <polygon points="8917.97,10582.0 9082.02,10582.0 9159.67,10659.6 8840.46,10659.6" fill="#5E5B43"/>
        <polygon points="8840.46,10340.4 8917.97,10417.9 8917.97,10582.0 8840.46,10659.6" fill="#9A916C"/>
        <rect x="8806.15" y="10306.1" fill="none" height="387.692" width="387.692" id="connector7pin" />
        <rect x="8849.77" y="10342.9" fill="none" height="314.210" width="300.597" id="connector7terminal" />
        <text x="9000" y="9950" style="font-size:300px;text-anchor:middle;fill:#a6a6a6;stroke:none;font-family:OCRA">IO33</text>
      </g>
      <g gorn="0.1.2.9" id="pin9">
        <!-- <polygon points="9717.11,10000 9500,10217.1 9500,10782.7 9717.113,11000 10282.74,11000 10500,10782.7 10500,10217.1 10282.747,10000 9717.113,10000" fill="#404040"/>  -->
        <rect x="9840.46" y="10340.4" fill="#8D8C8C" height="319.211" width="319.211"/>
        <rect x="9917.97" y="10417.9" fill="#8C8663" height="164.189" width="164.189"/>
        <polygon points="9840.46,10340.4 9917.97,10417.9 10082.0,10417.9 10159.6,10340.4" fill="#B8AF82"/>
        <polygon points="10082.0,10582.0 10082.0,10417.9 10159.6,10340.4 10159.6,10659.6" fill="#80795B"/>
        <polygon points="9917.97,10582.0 10082.0,10582.0 10159.6,10659.6 9840.46,10659.6" fill="#5E5B43"/>
        <polygon points="9840.46,10340.4 9917.97,10417.9 9917.97,10582.0 9840.46,10659.6" fill="#9A916C"/>
        <rect x="9806.15" y="10306.1" fill="none" height="387.692" width="387.692" id="connector8pin" />
        <rect x="9849.77" y="10342.9" fill="none" height="314.210" width="300.597" id="connector8terminal" />
        <text x="10000" y="9750" style="font-size:300px;text-anchor:middle;fill:#a6a6a6;stroke:none;font-family:OCRA">IO25</text>
      </g>
      <g gorn="0.1.2.10" id="pin10">
        <!-- <polygon points="10717.1,10000 10500,10217.1 10500,10782.7 10717.1,11000 11282.7,11000 11500,10782.7 11500,10217.1 11282.747,10000 10717.1,10000" fill="#404040"/>  -->
        <rect x="10840.4" y="10340.4" fill="#8D8C8C" height="319.211" width="319.211"/>
        <rect x="10917.9" y="10417.9" fill="#8C8663" height="164.189" width="164.189"/>
        <polygon points="10840.4,10340.4 10917.9,10417.9 11082.0,10417.9 11159.6,10340.4" fill="#B8AF82"/>
        <polygon points="11082.0,10582.0 11082.0,10417.9 11159.6,10340.4 11159.6,10659.6" fill="#80795B"/>
        <polygon points="10917.9,10582.0 11082.0,10582.0 11159.6,10659.6 10840.4,10659.6" fill="#5E5B43"/>
        <polygon points="10840.4,10340.4 10917.9,10417.9 10917.9,10582.0 10840.4,10659.6" fill="#9A916C"/>
        <rect x="10806.1" y="10306.1" fill="none" height="387.692" width="387.692" id="connector9pin" />
        <rect x="10849.7" y="10342.9" fill="none" height="314.210" width="300.597" id="connector9terminal" />
        <text x="11000" y="9950" style="font-size:300px;text-anchor:middle;fill:#a6a6a6;stroke:none;font-family:OCRA">IO26</text>
      </g>
      <g gorn="0.1.2.11" id="pin11">
        <!-- <polygon points="11717.1,10000 11500,10217.1 11500,10782.7 11717.1,11000 12282.7,11000 12500,10782.7 12500,10217.1 12282.747,10000 11717.1,10000" fill="#404040"/>  -->
        <rect x="11840.4" y="10340.4" fill="#8D8C8C" height="319.211" width="319.211"/>
        <rect x="11917.9" y="10417.9" fill="#8C8663" height="164.189" width="164.189"/>
        <polygon points="11840.4,10340.4 11917.9,10417.9 12082.0,10417.9 12159.6,10340.4" fill="#B8AF82"/>
        <polygon points="12082.0,10582.0 12082.0,10417.9 12159.6,10340.4 12159.6,10659.6" fill="#80795B"/>
        <polygon points="11917.9,10582.0 12082.0,10582.0 12159.6,10659.6 11840.4,10659.6" fill="#5E5B43"/>
        <polygon points="11840.4,10340.4 11917.9,10417.9 11917.9,10582.0 11840.4,10659.6" fill="#9A916C"/>
        <rect x="11806.1" y="10306.1" fill="none" height="387.692" width="387.692" id="connector10pin" />
        <rect x="11849.7" y="10342.9" fill="none" height="314.210" width="300.597" id="connector10terminal" />
        <text x="12000" y="9750" style="font-size:300px;text-anchor:middle;fill:#a6a6a6;stroke:none;font-family:OCRA">IO27</text>
      </g>
      <g gorn="0.1.2.12" id="pin12">
        <!-- <polygon points="12717.1,10000 12500,10217.1 12500,10782.7 12717.1,11000 13282.7,11000 13500,10782.7 13500,10217.1 13282.747,10000 12717.1,10000" fill="#404040"/>  -->
        <rect x="12840.4" y="10340.4" fill="#8D8C8C" height="319.211" width="319.211"/>
        <rect x="12917.9" y="10417.9" fill="#8C8663" height="164.189" width="164.189"/>
        <polygon points="12840.4,10340.4 12917.9,10417.9 13082.0,10417.9 13159.6,10340.4" fill="#B8AF82"/>
        <polygon points="13082.0,10582.0 13082.0,10417.9 13159.6,10340.4 13159.6,10659.6" fill="#80795B"/>
        <polygon points="12917.9,10582.0 13082.0,10582.0 13159.6,10659.6 12840.4,10659.6" fill="#5E5B43"/>
        <polygon points="12840.4,10340.4 12917.9,10417.9 12917.9,10582.0 12840.4,10659.6" fill="#9A916C"/>
        <rect x="12806.1" y="10306.1" fill="none" height="387.692" width="387.692" id="connector11pin" />
        <rect x="12849.7" y="10342.9" fill="none" height="314.210" width="300.597" id="connector11terminal" />
        <text x="13000" y="9950" style="font-size:300px;text-anchor:middle;fill:#a6a6a6;stroke:none;font-family:OCRA">IO14</text>
      </g>
      <g gorn="0.1.2.13" id="pin13">
        <!-- <polygon points="13717.1,10000 13500,10217.1 13500,10782.7 13717.1,11000 14282.7,11000 14500,10782.7 14500,10217.1 14282.747,10000 13717.1,10000" fill="#404040"/>  -->
        <rect x="13840.4" y="10340.4" fill="#8D8C8C" height="319.211" width="319.211"/>
        <rect x="13917.9" y="10417.9" fill="#8C8663" height="164.189" width="164.189"/>
        <polygon points="13840.4,10340.4 13917.9,10417.9 14082.0,10417.9 14159.6,10340.4" fill="#B8AF82"/>
        <polygon points="14082.0,10582.0 14082.0,10417.9 14159.6,10340.4 14159.6,10659.6" fill="#80795B"/>
        <polygon points="13917.9,10582.0 14082.0,10582.0 14159.6,10659.6 13840.4,10659.6" fill="#5E5B43"/>
        <polygon points="13840.4,10340.4 13917.9,10417.9 13917.9,10582.0 13840.4,10659.6" fill="#9A916C"/>
        <rect x="13806.1" y="10306.1" fill="none" height="387.692" width="387.692" id="connector12pin" />
        <rect x="13849.7" y="10342.9" fill="none" height="314.210" width="300.597" id="connector12terminal" />
        <text x="14000" y="9750" style="font-size:300px;text-anchor:middle;fill:#a6a6a6;stroke:none;font-family:OCRA">IO12</text>
      </g>
      <g gorn="0.1.2.14" id="pin14">
        <!-- <polygon points="14717.1,10000 14500,10217.1 14500,10782.7 14717.1,11000 15282.7,11000 15500,10782.7 15500,10217.1 15282.747,10000 14717.1,10000" fill="#404040"/>  -->
        <rect x="14840.4" y="10340.4" fill="#8D8C8C" height="319.211" width="319.211"/>
        <rect x="14917.9" y="10417.9" fill="#8C8663" height="164.189" width="164.189"/>
        <polygon points="14840.4,10340.4 14917.9,10417.9 15082.0,10417.9 15159.6,10340.4" fill="#B8AF82"/>
        <polygon points="15082.0,10582.0 15082.0,10417.9 15159.6,10340.4 15159.6,10659.6" fill="#80795B"/>
        <polygon points="14917.9,10582.0 15082.0,10582.0 15159.6,10659.6 14840.4,10659.6" fill="#5E5B43"/>
        <polygon points="14840.4,10340.4 14917.9,10417.9 14917.9,10582.0 14840.4,10659.6" fill="#9A916C"/>
        <rect x="14806.1" y="10306.1" fill="none" height="387.692" width="387.692" id="connector13pin" />
        <rect x="14849.7" y="10342.9" fill="none" height="314.210" width="300.597" id="connector13terminal" />
        <text x="15000" y="9950" style="font-size:300px;text-anchor:middle;fill:#a6a6a6;stroke:none;font-family:OCRA">GND</text>
      </g>
      <g gorn="0.1.2.15" id="pin15">
        <!-- <polygon points="15717.1,10000 15500,10217.1 15500,10782.7 15717.1,11000 16282.7,11000 16500,10782.7 16500,10217.1 16282.747,10000 15717.1,10000" fill="#404040"/>  -->
        <rect x="15840.4" y="10340.4" fill="#8D8C8C" height="319.211" width="319.211"/>
        <rect x="15917.9" y="10417.9" fill="#8C8663" height="164.189" width="164.189"/>
        <polygon points="15840.4,10340.4 15917.9,10417.9 16082.0,10417.9 16159.6,10340.4" fill="#B8AF82"/>
        <polygon points="16082.0,10582.0 16082.0,10417.9 16159.6,10340.4 16159.6,10659.6" fill="#80795B"/>
        <polygon points="15917.9,10582.0 16082.0,10582.0 16159.6,10659.6 15840.4,10659.6" fill="#5E5B43"/>
        <polygon points="15840.4,10340.4 15917.9,10417.9 15917.9,10582.0 15840.4,10659.6" fill="#9A916C"/>
        <rect x="15806.1" y="10306.1" fill="none" height="387.692" width="387.692" id="connector14pin" />
        <rect x="15849.7" y="10342.9" fill="none" height="314.210" width="300.597" id="connector14terminal" />
        <text x="16000" y="9750" style="font-size:300px;text-anchor:middle;fill:#a6a6a6;stroke:none;font-family:OCRA">IO13</text>
      </g>
      <g gorn="0.1.2.16" id="pin16">
        <!-- <polygon points="16717.1,10000 16500,10217.1 16500,10782.7 16717.1,11000 17282.7,11000 17500,10782.7 17500,10217.1 17282.747,10000 16717.1,10000" fill="#404040"/>  -->
        <rect x="16840.4" y="10340.4" fill="#8D8C8C" height="319.211" width="319.211"/>
        <rect x="16917.9" y="10417.9" fill="#8C8663" height="164.189" width="164.189"/>
        <polygon points="16840.4,10340.4 16917.9,10417.9 17082.0,10417.9 17159.6,10340.4" fill="#B8AF82"/>
        <polygon points="17082.0,10582.0 17082.0,10417.9 17159.6,10340.4 17159.6,10659.6" fill="#80795B"/>
        <polygon points="16917.9,10582.0 17082.0,10582.0 17159.6,10659.6 16840.4,10659.6" fill="#5E5B43"/>
        <polygon points="16840.4,10340.4 16917.9,10417.9 16917.9,10582.0 16840.4,10659.6" fill="#9A916C"/>
        <rect x="16806.1" y="10306.1" fill="none" height="387.692" width="387.692" id="connector15pin" />
        <rect x="16849.7" y="10342.9" fill="none" height="314.210" width="300.597" id="connector15terminal" />
        <text x="17000" y="9950" style="font-size:300px;text-anchor:middle;fill:#a6a6a6;stroke:none;font-family:OCRA">SD2</text>
      </g>
      <g gorn="0.1.2.17" id="pin17">
        <!-- <polygon points="17717.1,10000 17500,10217.1 17500,10782.7 17717.1,11000 18282.7,11000 18500,10782.7 18500,10217.1 18282.747,10000 17717.1,10000" fill="#404040"/>  -->
        <rect x="17840.4" y="10340.4" fill="#8D8C8C" height="319.211" width="319.211"/>
        <rect x="17917.9" y="10417.9" fill="#8C8663" height="164.189" width="164.189"/>
        <polygon points="17840.4,10340.4 17917.9,10417.9 18082.0,10417.9 18159.6,10340.4" fill="#B8AF82"/>
        <polygon points="18082.0,10582.0 18082.0,10417.9 18159.6,10340.4 18159.6,10659.6" fill="#80795B"/>
        <polygon points="17917.9,10582.0 18082.0,10582.0 18159.6,10659.6 17840.4,10659.6" fill="#5E5B43"/>
        <polygon points="17840.4,10340.4 17917.9,10417.9 17917.9,10582.0 17840.4,10659.6" fill="#9A916C"/>
        <rect x="17806.1" y="10306.1" fill="none" height="387.692" width="387.692" id="connector16pin" />
        <rect x="17849.7" y="10342.9" fill="none" height="314.210" width="300.597" id="connector16terminal" />
        <text x="18000" y="9750" style="font-size:300px;text-anchor:middle;fill:#a6a6a6;stroke:none;font-family:OCRA">SD3</text>
      </g>
      <g gorn="0.1.2.18" id="pin18">
        <!-- <polygon points="18717.1,10000 18500,10217.1 18500,10782.7 18717.1,11000 19282.7,11000 19500,10782.7 19500,10217.1 19282.747,10000 18717.1,10000" fill="#404040"/>  -->
        <rect x="18840.4" y="10340.4" fill="#8D8C8C" height="319.211" width="319.211"/>
        <rect x="18917.9" y="10417.9" fill="#8C8663" height="164.189" width="164.189"/>
        <polygon points="18840.4,10340.4 18917.9,10417.9 19082.0,10417.9 19159.6,10340.4" fill="#B8AF82"/>
        <polygon points="19082.0,10582.0 19082.0,10417.9 19159.6,10340.4 19159.6,10659.6" fill="#80795B"/>
        <polygon points="18917.9,10582.0 19082.0,10582.0 19159.6,10659.6 18840.4,10659.6" fill="#5E5B43"/>
        <polygon points="18840.4,10340.4 18917.9,10417.9 18917.9,10582.0 18840.4,10659.6" fill="#9A916C"/>
        <rect x="18806.1" y="10306.1" fill="none" height="387.692" width="387.692" id="connector17pin" />
        <rect x="18849.7" y="10342.9" fill="none" height="314.210" width="300.597" id="connector17terminal" />
        <text x="19000" y="9950" style="font-size:300px;text-anchor:middle;fill:#a6a6a6;stroke:none;font-family:OCRA">CMD</text>
      </g>
      <g gorn="0.1.2.19" id="pin19">
        <!-- <polygon points="19717.1,10000 19500,10217.1 19500,10782.7 19717.1,11000 20282.7,11000 20500,10782.7 20500,10217.1 20282.7,10000 19717.1,10000" fill="#404040"/>  -->
        <rect x="19840.5" y="10340.4" fill="#8D8C8C" height="319.211" width="319.211"/>
        <rect x="19918" y="10417.9" fill="#8C8663" height="164.189" width="164.189"/>
        <polygon points="19840.4,10340.4 19917.9,10417.9 20082.0,10417.9 20159.6,10340.4" fill="#B8AF82"/>
        <polygon points="20082.0,10582.0 20082.0,10417.9 20159.6,10340.4 20159.6,10659.6" fill="#80795B"/>
        <polygon points="19917.9,10582.0 20082.0,10582.0 20159.6,10659.6 19840.4,10659.6" fill="#5E5B43"/>
        <polygon points="19840.4,10340.4 19917.9,10417.9 19917.9,10582.0 19840.4,10659.6" fill="#9A916C"/>
        <rect x="19806.2" y="10306.1" fill="none" height="387.692" width="387.692" id="connector18pin" />
        <rect x="19849.8" y="10342.9" fill="none" height="314.210" width="300.597" id="connector18terminal" />
        <text x="20000" y="9750" style="font-size:300px;text-anchor:middle;fill:#a6a6a6;stroke:none;font-family:OCRA">5V</text>
      </g>
    </g>
    <text x="12000" y="3550" style="font-size:800px;text-anchor:start;fill:#a6a6a6;stroke:none;font-family:OCRA">ESP32-DevKitC</text>
    <!-- Holes for 2mm screws -->
    <circle cx="1000" cy="750" r="450" style="fill:#bfbfbf;stroke:none;"/>
    <circle cx="1000" cy="10250" r="450" style="fill:#bfbfbf;stroke:none;"/>
    <circle cx="21000" cy="750" r="450" style="fill:#bfbfbf;stroke:none;"/>
    <circle cx="21000" cy="10250" r="450" style="fill:#bfbfbf;stroke:none;"/>
    <g gorn="0.2.1" id="ESP-WROOM-32">
      <!-- ESP-WROOM-32 -->
      <rect x="50" y="2050" width="9000" height="6950" style="fill:#0E1C4C;stroke:grey;stroke-width:10;"/>
      <path d="M3050 2500 L250 2500 L250 3500 L3050 3500 M250 3500 L250 4500 L1300 4500 L1300 5500 L250 5500 L250 6500 L1300 6500 L1300 7500 L250 7500 L250 8500 L2300 8500" style="fill:none;stroke:#3f3f3f;stroke-width:250"/>
      <rect x="3050" y="2050" width="6000" height="6950" style="fill:grey;stroke:drakgrey;stroke-width:10;"/>
      <circle cx="8750" cy="8750" r="95" style="fill:#000000;stroke:none;"/>
      <text x="4000" y="5000" style="font-size:350px;text-anchor:start;fill:#b6b6b6;stroke:none;font-family:OCRA">ESP-WROOM-32</text>
    </g>
    <!-- Small Components -->
    <rect x="9500" y="2350" width="1100" height="400" style="fill:#1F1F1F;stroke:#FFFFFF;stroke-width:10;"/>
    <rect x="9500" y="2950" width="1100" height="400" style="fill:#1F1F1F;stroke:#FFFFFF;stroke-width:10;"/>
    <rect x="9500" y="3550" width="1100" height="400" style="fill:#1F1F1F;stroke:#FFFFFF;stroke-width:10;"/>
    <rect x="9500" y="4150" width="1100" height="400" style="fill:#1F1F1F;stroke:#FFFFFF;stroke-width:10;"/>
    <rect x="9500" y="4750" width="1100" height="400" style="fill:#1F1F1F;stroke:#FFFFFF;stroke-width:10;"/>
    <rect x="9500" y="5350" width="1100" height="400" style="fill:#1F1F1F;stroke:#FFFFFF;stroke-width:10;"/>
    <rect x="9500" y="5950" width="1100" height="400" style="fill:#1F1F1F;stroke:#FFFFFF;stroke-width:10;"/>
    <rect x="9500" y="6550" width="1100" height="400" style="fill:#1F1F1F;stroke:#FFFFFF;stroke-width:10;"/>
    <rect x="12000" y="8750" width="1100" height="400" style="fill:#1F1F1F;stroke:#FFFFFF;stroke-width:10;"/>
    <rect x="14500" y="8750" width="1100" height="400" style="fill:#1F1F1F;stroke:#FFFFFF;stroke-width:10;"/>
    <rect x="12250" y="7050" width="800" height="1200" style="fill:#1F1F1F;stroke:#FFFFFF;stroke-width:10;"/>
    <rect x="14500" y="7150" width="1100" height="1100" style="fill:#1F1F1F;stroke:#FFFFFF;stroke-width:10;"/>
    <!-- CP2102 -->
    <rect x="16000" y="4050" width="2000" height="2000" style="fill:#1F1F1F;stroke:grey;stroke-width:25;"/>
    <circle cx="16200" cy="5800" r="75" fill="#000000" stroke-width="0"/>
    <text x="16300" y="5100" style="font-size:350px;text-anchor:start;fill:#a6a6a6;stroke:none;font-family:OCRA">CP2102</text>
    <!-- 3V3 Regulator -->
    <g id="Regulator" gorn="0.1.2">
      <rect x="17000" y="7050" width="1000" height="2000" style="fill:#1F1F1F;stroke:grey;stroke-width:25;"/>
      <rect x="16500" y="7750" width="500" height="500" style="fill:grey;stroke:grey;stroke-width:25;"/>
      <rect x="18000" y="7175" width="500" height="250" style="fill:grey;stroke:grey;stroke-width:25;"/>
      <rect x="18000" y="7875" width="500" height="250" style="fill:grey;stroke:grey;stroke-width:25;"/>
      <rect x="18000" y="8675" width="500" height="250" style="fill:grey;stroke:grey;stroke-width:25;"/>
      <!--   <text x="18000" y="7800" style="font-size:350px;text-anchor:start;fill:#a6a6a6;stroke:none;font-family:OCRA">NCP1117</text>-->
    </g>
    <!-- Bushbutton Boot -->
    <rect x="20000" y="2050" width="1500" height="1000" style="fill:grey;stroke:drakgrey;stroke-width:100;"/>
    <circle cx="20750" cy="2550" r="250" style="fill:#1F1F1F;stroke-width:0;"/>
    <text x="20750" y="3400" font-size="350" font-family="OCRA" fill="#a6a6a6" text-anchor="middle" id="label" stroke="none">BOOT</text>
    <!-- USB connector -->
    <rect x="20000" y="4050" width="2000" height="2950" style="fill:grey;stroke:drakgrey;stroke-width:10;"/>
    <rect x="20000" y="4650" width="300" height="600" style="fill:#1f1f1f;stroke:drakgrey;stroke-width:0;"/>
    <rect x="20000" y="5850" width="300" height="600" style="fill:#1f1f1f;stroke:drakgrey;stroke-width:0;"/>
    <rect x="20900" y="4350" width="600" height="300" style="fill:#1f1f1f;stroke:drakgrey;stroke-width:0;"/>
    <rect x="20900" y="6450" width="600" height="300" style="fill:#1f1f1f;stroke:drakgrey;stroke-width:0;"/>
    <!-- Bushbutton RST -->
    <rect x="20000" y="8050" width="1500" height="1000" style="fill:grey;stroke:drakgrey;stroke-width:100;"/>
    <circle cx="20750" cy="8550" r="250" style="fill:#1F1F1F;stroke-width:0;"/>
    <text x="20750" y="7950" font-size="350" font-family="OCRA" fill="#a6a6a6" text-anchor="middle" id="label" stroke="none">RST</text>
  </g>
</svg>
