<?xml version='1.0' encoding='utf-8'?>
<svg xmlns="http://www.w3.org/2000/svg" width="0.3in" viewBox="0 0 30.0 33.0" xmlns:xml="http://www.w3.org/XML/1998/namespace" gorn="0" xml:space="preserve"  version="1.2" baseProfile="tiny" id="svg2" height="0.33in">
    <desc>
        <referenceFile>dip_icon.svg</referenceFile>
    </desc>
    <g gorn="0.0"  id="icon">
        <rect width="30.0" x="0" gorn="0.0.0"  y="3" fill="#303030" id="middle" height="27.0"/>
        <rect width="30.0" x="0" gorn="0.0.1"  y="3.0" fill="#3D3D3D" id="top" height="2.46"/>
        <rect width="30.0" x="0" gorn="0.0.2"  y="27.54" fill="#000000" id="bottom" height="2.46"/>
        <polygon gorn="0.0.3"  fill="#141414" points="30.0,3 29.25,5.46 29.25,27.54 30.0,30.0" id="right"/>
        <polygon gorn="0.0.4"  fill="#1F1F1F" points="0,3 0.75,5.46 0.75,27.54 0,30.0" id="left"/>
        <polygon gorn="0.0.5"  fill="#1C1C1C" points="5,11.5 0.75,11.46 0.56,13.58 0.56,16.5 5,16.5" id="left-upper-rect"/>
        <polygon gorn="0.0.6"  fill="#383838" points="0.75,21.55 5,21.55 5,16.5 0.56,16.5 0.56,19.42" id="left-lower-rect"/>
        <path gorn="0.0.7" d="M0.56,13.58v5.83c1.47-0.17,2.62-1.4,2.62-2.92C3.18,14.97,2.04,13.75,0.56,13.58z"  fill="#262626" id="slot"/>
        <path gorn="0.0.8" d="M0.75,5.46V11.45c2.38,0.45,4.19,2.53,4.19,5.04c0,2.51-1.8,4.6-4.19,5.05V21.55h5.0V5.46H0.75z"  fill="#303030" id="cover"/>
        <circle cy="23.47" r="2.06"  fill="#212121" cx="6.5"/>
        <text x="6.5" gorn="0.0.10" font-size="8" font-family="OCRA"  y="16.5" fill="#dddddd" text-anchor="start" id="label" stroke="none">IC</text>
        <rect width="3" x="3.5" gorn="0.0.11"  y="28.66" fill="#8C8C8C" id="connector0pin" height="4.34"/>
        <rect width="3" x="3.5" gorn="0.0.12"  y="30.0" fill="#8C8C8C" id="connector0terminal" height="3"/>
        <polygon  fill="#8C8C8C" points="3.5,28.66 3.5,30.66 6.5,30.66 8.5,29.74 8.5,28.66 &#x9;"/>
        <rect width="3" x="3.5" gorn="0.0.14"  fill="#8C8C8C" id="connector5pin" height="4.34"/>
        <rect width="3" x="3.5" gorn="0.0.15"  fill="#8C8C8C" id="connector5terminal" height="3"/>
        <polygon  fill="#8C8C8C" points="8.5,4.34 8.5,3.26 6.5,2.34 3.5,2.34 3.5,4.34"/>
        <rect width="3" x="23.5" gorn="0.0.17"  y="28.66" fill="#8C8C8C" id="connector2pin" height="4.34"/>
        <rect width="3" x="23.5" gorn="0.0.18"  y="30.0" fill="#8C8C8C" id="connector2terminal" height="3"/>
        <polygon  fill="#8C8C8C" points="21.5,28.66 21.5,29.74 23.5,30.66 26.5,30.66 26.5,28.66"/>
        <rect width="3" x="23.5" gorn="0.0.20"  y="0" fill="#8C8C8C" id="connector3pin" height="4.34"/>
        <rect width="3" x="23.5" gorn="0.0.21"  y="0" fill="#8C8C8C" id="connector3terminal" height="3"/>
        <polygon  fill="#8C8C8C" points="26.5,4.34 26.5,2.34 23.5,2.34 21.5,3.26 21.5,4.34 &#x9;"/>
        <rect width="3" x="13.5" gorn="0.0.23"  y="28.66" fill="#8C8C8C" id="connector1pin" height="4.34"/>
        <rect width="3" x="13.5" gorn="0.0.24"  y="30.0" fill="#8C8C8C" id="connector1terminal" height="3"/>
        <polygon  fill="#8C8C8C" points="11.5,28.66 11.5,29.74 13.5,30.66 16.5,30.66 18.5,29.74 18.5,28.66"/>
        <rect width="3" x="13.5" gorn="0.0.26"  y="0" fill="#8C8C8C" id="connector4pin" height="4.34"/>
        <rect width="3" x="13.5" gorn="0.0.27"  fill="#8C8C8C" id="connector4terminal" height="3"/>
        <polygon  fill="#8C8C8C" points="18.5,4.34 18.5,3.26 16.5,2.34 13.5,2.34 11.5,3.26 11.5,4.34"/>
    </g>
</svg>
